<?xml version="1.0" encoding="UTF-8" standalone="no"?>
<svg
   xmlns:dc="http://purl.org/dc/elements/1.1/"
   xmlns:cc="http://creativecommons.org/ns#"
   xmlns:rdf="http://www.w3.org/1999/02/22-rdf-syntax-ns#"
   xmlns:svg="http://www.w3.org/2000/svg"
   xmlns="http://www.w3.org/2000/svg"
   viewBox="0 0 4000 2666.6667"
   height="2666.6667"
   width="4000"
   xml:space="preserve"
   id="svg2"
   version="1.1"><metadata
     id="metadata8"><rdf:RDF><cc:Work
         rdf:about=""><dc:format>image/svg+xml</dc:format><dc:type
           rdf:resource="http://purl.org/dc/dcmitype/StillImage" /></cc:Work></rdf:RDF></metadata><defs
     id="defs6" /><g
     transform="matrix(1.3333333,0,0,-1.3333333,0,2666.6667)"
     id="g10"><g
       transform="scale(0.1)"
       id="g12"><g
         transform="scale(1.84049)"
         id="g14"><path
           id="path16"
           style="fill:#ffffff;fill-opacity:1;fill-rule:nonzero;stroke:none"
           d="M 16300,0 H 0 V 10866.7 H 16300 V 0" /></g><g
         transform="scale(1.81023)"
         id="g18"><path
           id="path20"
           style="fill:#edf4ff;fill-opacity:1;fill-rule:nonzero;stroke:none"
           d="m 1241.66,1420.7 c 0.74,-0.49 14381.44,1.71 14381.44,1.71 443.1,907.95 676.9,1913.84 427,2897.48 -299.6,1179.73 -1305.8,1972.31 -1974.3,2275.43 -547.9,249.37 -1055.8,281.85 -1505.1,240.52 -347.4,-31.96 -659.7,-108.1 -928.4,-162.38 -189.6,-38.47 -367.5,-67.75 -515.9,-58.08 -246.5,16.11 -439.7,192.57 -613.5,376.37 C 9897.01,7642.52 9191.8,8767.51 6673.56,8902.14 5925.2,8941.88 5059.92,8875.9 4367.98,8587.9 4073.76,8465.53 2965.23,7917.99 2639.99,6991.75 2537.26,6699.41 2512.62,6369.38 2616.19,6003.07 2982.76,4706.85 2424.64,4545.49 1726.29,3927.78 794.213,3103.36 494.086,1990.96 1241.66,1420.7" /></g><path
         id="path22"
         style="fill:#e58638;fill-opacity:1;fill-rule:nonzero;stroke:none"
         d="M 8943.67,11464 V 8188.5 H 3366.73 l 200,3275.5 h 5376.94" /><g
         transform="scale(1.58277)"
         id="g24"><path
           id="path26"
           style="fill:#f2d3b6;fill-opacity:1;fill-rule:nonzero;stroke:none"
           d="m 12261,1599.72 h 4039 V 7653.4 H 12261 V 1599.72" /></g><g
         transform="scale(1.01786)"
         id="g28"><path
           id="path30"
           style="fill:#f2d3b6;fill-opacity:1;fill-rule:nonzero;stroke:none"
           d="M 16300,2511.04 H 8786.23 V 12508.5 H 16300 V 2511.04" /></g><g
         transform="scale(1.20068)"
         id="g32"><path
           id="path34"
           style="fill:#e58638;fill-opacity:1;fill-rule:nonzero;stroke:none"
           d="M 16300,13446 V 9312.28 H 7194.44 V 13446 H 16300" /></g><g
         transform="scale(1.59214)"
         id="g36"><path
           id="path38"
           style="fill:#f2d3b6;fill-opacity:1;fill-rule:nonzero;stroke:none"
           d="M 9079.82,7425.61 12689.9,10838.9 16300,7425.61 H 9079.82" /></g><g
         transform="scale(1.63507)"
         id="g40"><path
           id="path42"
           style="fill:#e58638;fill-opacity:1;fill-rule:nonzero;stroke:none"
           d="m 16156.8,6903.98 c -31.4,0 -62.8,11.35 -87.7,34.38 L 12356.7,10168.2 C 11174.3,9091.59 9800.82,8054.66 9759.54,8027.17 c -59.21,-39.52 -139.39,-23.63 -178.96,35.9 -38.22,57.25 -24.58,133.84 29.73,174.69 85.07,70.37 1634.29,1478.4 2659.49,2412.04 49.7,45.1 125.7,44.6 174.7,-0.8 l 3800.1,-3521.14 c 52.3,-48.51 55.4,-130.22 7,-182.52 -25.5,-27.49 -60.1,-41.36 -94.8,-41.36" /></g><g
         transform="scale(1.25247)"
         id="g44"><path
           id="path46"
           style="fill:#ffe3ca;fill-opacity:1;fill-rule:nonzero;stroke:none"
           d="m 16300,2040.7 h -6106.4 v 8124.9 H 16300 V 2040.7" /></g><g
         transform="scale(1.25247)"
         id="g48"><path
           id="path50"
           style="fill:#ffe3ca;fill-opacity:1;fill-rule:nonzero;stroke:none"
           d="m 10193.6,10165.6 3053.2,2886.7 3053.2,-2886.7 -5265.8,-20.1 -840.6,20.1" /></g><g
         transform="scale(1.08574)"
         id="g52"><path
           id="path54"
           style="fill:#efcdaf;fill-opacity:1;fill-rule:nonzero;stroke:none"
           d="M 16300,10622.2 V 8808.44 h -2069.2 v 1778.76 c 0,307.2 131,583.4 341.1,775.3 33.6,31.1 70,59.6 107.5,85.5 36.3,27.3 75.2,50.6 115.5,71.3 145.1,76.5 311.1,119.3 487.4,119.3 176.2,0 340.9,-44.1 484.9,-124.4 40.1,-19.5 79,-44.1 115.3,-72.6 33.7,-23.4 66.1,-50.6 97.3,-79.1 197.1,-185.4 320.2,-448.6 320.2,-740.3" /></g><g
         transform="scale(1.08803)"
         id="g56"><path
           id="path58"
           style="fill:#f9ddbf;fill-opacity:1;fill-rule:nonzero;stroke:none"
           d="m 14366.6,11000.9 h 1746 c -50.6,107.8 -122.4,207.1 -210.9,290.7 -28.1,25.8 -58,51 -89.5,72.8 -36.2,28.3 -71,50.1 -106.5,67.3 -141,78.7 -293.3,117.8 -455.6,117.8 -159.9,0 -317.6,-38.6 -456.2,-111.6 -41.6,-21.5 -76.2,-42.8 -106.3,-65.7 -38.5,-26.4 -72.2,-53.2 -102.5,-81.2 -90.5,-82.6 -164.8,-181.6 -218.5,-290.1 z m 1933.4,-129.4 h -2125.2 l 32.9,87.5 c 60.6,161.7 160.8,309.4 290,427.4 34.5,31.9 73,62.5 114.3,90.8 33.7,25.5 74.3,50.8 122.1,75.4 156.6,82.5 335.2,126.2 516,126.2 184.8,0 358.2,-44.6 515.4,-132.4 40.5,-19.5 83,-46.3 123.5,-77.9 29.7,-20.5 63.7,-48 100.8,-82.3 127.2,-120.1 223.9,-268.2 280,-428.6 l 30.2,-86.1" /></g><g
         transform="scale(1.15152)"
         id="g60"><path
           id="path62"
           style="fill:#efcdaf;fill-opacity:1;fill-rule:nonzero;stroke:none"
           d="M 16300,8305.75 H 12487.2 V 10332.9 H 16300 V 8305.75" /></g><g
         transform="scale(1.02115)"
         id="g64"><path
           id="path66"
           style="fill:#f9ddbf;fill-opacity:1;fill-rule:nonzero;stroke:none"
           d="M 16162.2,9366.07 V 11652.1 H 16300 V 9366.07 h -137.8" /></g><g
         transform="scale(1.14562)"
         id="g68"><path
           id="path70"
           style="fill:#f9ddbf;fill-opacity:1;fill-rule:nonzero;stroke:none"
           d="M 12596.7,9760.31 H 16300 v -61.43 h -3703.3 v 61.43" /></g><g
         transform="scale(1.14562)"
         id="g72"><path
           id="path74"
           style="fill:#f9ddbf;fill-opacity:1;fill-rule:nonzero;stroke:none"
           d="M 12596.7,9090.83 H 16300 v -61.44 h -3703.3 v 61.44" /></g><path
         id="path76"
         style="fill:#f9ddbf;fill-opacity:1;fill-rule:nonzero;stroke:none"
         d="m 15527.6,9564.2 v 2334.3 h 140.7 V 9564.2 h -140.7" /><g
         transform="scale(1.08107)"
         id="g78"><path
           id="path80"
           style="fill:#f9ddbf;fill-opacity:1;fill-rule:nonzero;stroke:none"
           d="M 16169.8,8846.99 V 11006.3 H 16300 V 8846.99 h -130.2" /></g><g
         transform="scale(1.15152)"
         id="g82"><path
           id="path84"
           style="fill:#f9ddbf;fill-opacity:1;fill-rule:nonzero;stroke:none"
           d="M 16177.8,8305.75 V 10332.9 H 16300 V 8305.75 h -122.2" /></g><path
         id="path86"
         style="fill:#f9ddbf;fill-opacity:1;fill-rule:nonzero;stroke:none"
         d="m 14379.2,9564.2 v 2334.3 H 14520 V 9564.2 h -140.8" /><g
         transform="scale(1.15153)"
         id="g88"><path
           id="path90"
           style="fill:#f9ddbf;fill-opacity:1;fill-rule:nonzero;stroke:none"
           d="M 12487.3,8427.81 H 16300 v -122.28 h -3812.7 v 122.28" /></g><g
         transform="scale(1.15153)"
         id="g92"><path
           id="path94"
           style="fill:#f9ddbf;fill-opacity:1;fill-rule:nonzero;stroke:none"
           d="M 12487.3,10332.8 H 16300 v -122.3 h -3812.7 v 122.3" /></g><g
         transform="scale(1.05793)"
         id="g96"><path
           id="path98"
           style="fill:#f9ddbf;fill-opacity:1;fill-rule:nonzero;stroke:none"
           d="m 16300,11742.3 -626.7,-663.9 -608,670.6 c 37.3,27.9 77.2,51.9 118.5,73.2 l 490.9,-541.6 507,536.2 c 41.2,-19.9 81.1,-45.2 118.3,-74.5" /></g><g
         transform="scale(1.15152)"
         id="g100"><path
           id="path102"
           style="fill:#efcdaf;fill-opacity:1;fill-rule:nonzero;stroke:none"
           d="M 16300,4238.85 H 12487.2 V 6266.01 H 16300 V 4238.85" /></g><g
         transform="scale(1.02115)"
         id="g104"><path
           id="path106"
           style="fill:#f9ddbf;fill-opacity:1;fill-rule:nonzero;stroke:none"
           d="M 16162.2,4779.99 V 7066.03 H 16300 V 4779.99 h -137.8" /></g><g
         transform="scale(1.14562)"
         id="g108"><path
           id="path110"
           style="fill:#f9ddbf;fill-opacity:1;fill-rule:nonzero;stroke:none"
           d="M 12596.7,5672.48 H 16300 v -61.37 h -3703.3 v 61.37" /></g><g
         transform="scale(1.14562)"
         id="g112"><path
           id="path114"
           style="fill:#f9ddbf;fill-opacity:1;fill-rule:nonzero;stroke:none"
           d="M 12596.7,5003.06 H 16300 v -61.46 h -3703.3 v 61.46" /></g><path
         id="path116"
         style="fill:#f9ddbf;fill-opacity:1;fill-rule:nonzero;stroke:none"
         d="m 15527.6,4881.1 v 2334.4 h 140.7 V 4881.1 h -140.7" /><g
         transform="scale(1.08107)"
         id="g118"><path
           id="path120"
           style="fill:#f9ddbf;fill-opacity:1;fill-rule:nonzero;stroke:none"
           d="M 16169.8,4515.07 V 6674.42 H 16300 V 4515.07 h -130.2" /></g><g
         transform="scale(1.15152)"
         id="g122"><path
           id="path124"
           style="fill:#f9ddbf;fill-opacity:1;fill-rule:nonzero;stroke:none"
           d="M 16177.8,4238.85 V 6266.09 H 16300 V 4238.85 h -122.2" /></g><path
         id="path126"
         style="fill:#f9ddbf;fill-opacity:1;fill-rule:nonzero;stroke:none"
         d="M 14379.2,4881.1 V 7215.5 H 14520 V 4881.1 h -140.8" /><g
         transform="scale(1.15153)"
         id="g128"><path
           id="path130"
           style="fill:#f9ddbf;fill-opacity:1;fill-rule:nonzero;stroke:none"
           d="M 12487.3,4360.97 H 16300 v -122.19 h -3812.7 v 122.19" /></g><g
         transform="scale(1.15153)"
         id="g132"><path
           id="path134"
           style="fill:#f9ddbf;fill-opacity:1;fill-rule:nonzero;stroke:none"
           d="M 12487.3,6265.99 H 16300 v -122.27 h -3812.7 v 122.27" /></g><path
         id="path136"
         style="fill:#efcdaf;fill-opacity:1;fill-rule:nonzero;stroke:none"
         d="M 11934.3,4881.1 H 9988.43 V 7215.4 H 11934.3 V 4881.1" /><path
         id="path138"
         style="fill:#f9ddbf;fill-opacity:1;fill-rule:nonzero;stroke:none"
         d="m 11813.5,4881.1 v 2334.4 h 120.9 V 4881.1 h -120.9" /><path
         id="path140"
         style="fill:#f9ddbf;fill-opacity:1;fill-rule:nonzero;stroke:none"
         d="m 10011.4,6498.5 h 1880.2 v -70.3 h -1880.2 v 70.3" /><path
         id="path142"
         style="fill:#f9ddbf;fill-opacity:1;fill-rule:nonzero;stroke:none"
         d="m 10011.4,5731.6 h 1880.2 v -70.4 h -1880.2 v 70.4" /><path
         id="path144"
         style="fill:#f9ddbf;fill-opacity:1;fill-rule:nonzero;stroke:none"
         d="M 10891.1,4881.1 V 7215.5 H 11012 V 4881.1 h -120.9" /><path
         id="path146"
         style="fill:#f9ddbf;fill-opacity:1;fill-rule:nonzero;stroke:none"
         d="m 9988.43,4881.1 v 2334.4 h 120.87 V 4881.1 h -120.87" /><path
         id="path148"
         style="fill:#f9ddbf;fill-opacity:1;fill-rule:nonzero;stroke:none"
         d="M 9988.54,5021.8 H 11934.4 V 4881.1 H 9988.54 v 140.7" /><path
         id="path150"
         style="fill:#f9ddbf;fill-opacity:1;fill-rule:nonzero;stroke:none"
         d="M 9988.54,7215.5 H 11934.4 V 7074.7 H 9988.54 v 140.8" /><path
         id="path152"
         style="fill:#efcdaf;fill-opacity:1;fill-rule:nonzero;stroke:none"
         d="M 11934.3,8224 H 9988.43 v 2334.3 H 11934.3 V 8224" /><path
         id="path154"
         style="fill:#f9ddbf;fill-opacity:1;fill-rule:nonzero;stroke:none"
         d="m 11813.5,8224 v 2334.3 h 120.9 V 8224 h -120.9" /><path
         id="path156"
         style="fill:#f9ddbf;fill-opacity:1;fill-rule:nonzero;stroke:none"
         d="m 10011.4,9841.4 h 1880.2 V 9771 h -1880.2 v 70.4" /><path
         id="path158"
         style="fill:#f9ddbf;fill-opacity:1;fill-rule:nonzero;stroke:none"
         d="m 10011.4,9074.4 h 1880.2 V 9004 h -1880.2 v 70.4" /><path
         id="path160"
         style="fill:#f9ddbf;fill-opacity:1;fill-rule:nonzero;stroke:none"
         d="m 10891.1,8224 v 2334.3 H 11012 V 8224 h -120.9" /><path
         id="path162"
         style="fill:#f9ddbf;fill-opacity:1;fill-rule:nonzero;stroke:none"
         d="m 9988.43,8224 v 2334.3 h 120.87 V 8224 h -120.87" /><path
         id="path164"
         style="fill:#f9ddbf;fill-opacity:1;fill-rule:nonzero;stroke:none"
         d="M 9988.54,8364.7 H 11934.4 V 8223.9 H 9988.54 v 140.8" /><path
         id="path166"
         style="fill:#f9ddbf;fill-opacity:1;fill-rule:nonzero;stroke:none"
         d="m 9988.54,10558.3 h 1945.86 v -140.7 H 9988.54 v 140.7" /><g
         transform="scale(1.47529)"
         id="g168"><path
           id="path170"
           style="fill:#efcdaf;fill-opacity:1;fill-rule:nonzero;stroke:none"
           d="M 16300,6788.15 H 14981.1 V 8370.4 H 16300 V 6788.15" /></g><g
         transform="scale(1.47529)"
         id="g172"><path
           id="path174"
           style="fill:#f9ddbf;fill-opacity:1;fill-rule:nonzero;stroke:none"
           d="M 16218,6788.12 V 8370.4 h 82 V 6788.12 h -82" /></g><g
         transform="scale(1.47267)"
         id="g176"><path
           id="path178"
           style="fill:#f9ddbf;fill-opacity:1;fill-rule:nonzero;stroke:none"
           d="M 15023.2,7898.47 H 16300 v -47.79 h -1276.8 v 47.79" /></g><g
         transform="scale(1.47267)"
         id="g180"><path
           id="path182"
           style="fill:#f9ddbf;fill-opacity:1;fill-rule:nonzero;stroke:none"
           d="M 15023.2,7377.66 H 16300 v -47.79 h -1276.8 v 47.79" /></g><g
         transform="scale(1.41871)"
         id="g184"><path
           id="path186"
           style="fill:#f9ddbf;fill-opacity:1;fill-rule:nonzero;stroke:none"
           d="m 16214.8,7058.89 v 1645.38 h 85.2 V 7058.89 h -85.2" /></g><g
         transform="scale(1.36333)"
         id="g188"><path
           id="path190"
           style="fill:#f9ddbf;fill-opacity:1;fill-rule:nonzero;stroke:none"
           d="m 16211.3,7345.6 v 1712.21 h 88.7 V 7345.6 h -88.7" /></g><g
         transform="scale(1.47529)"
         id="g192"><path
           id="path194"
           style="fill:#f9ddbf;fill-opacity:1;fill-rule:nonzero;stroke:none"
           d="M 14981.1,6883.49 H 16300 v -95.41 h -1318.9 v 95.41" /></g><g
         transform="scale(1.47529)"
         id="g196"><path
           id="path198"
           style="fill:#f9ddbf;fill-opacity:1;fill-rule:nonzero;stroke:none"
           d="M 14981.1,8370.4 H 16300 v -95.42 h -1318.9 v 95.42" /></g><g
         transform="scale(1.29417)"
         id="g200"><path
           id="path202"
           style="fill:#ed9f4a;fill-opacity:1;fill-rule:nonzero;stroke:none"
           d="m 9448.36,9411.46 c -52.7,0 -104.47,25.49 -135.92,72.76 -48.21,72.33 -30.98,169.1 37.63,220.71 107.64,88.91 2064.73,1867.77 3360.03,3047.37 62.7,57 158.7,56.4 220.7,-1 L 16230,9694.31 c 66.1,-61.29 70,-164.52 8.8,-230.59 -61.4,-66.28 -164.5,-70 -230.6,-8.82 l -3224.5,2616.7 c -1399.5,-1202.5 -3192.93,-2598 -3245.09,-2632.74 -27.74,-18.58 -59.19,-27.4 -90.25,-27.4" /></g><path
         id="path204"
         style="fill:#ffe3ca;fill-opacity:1;fill-rule:nonzero;stroke:none"
         d="M 3678.76,2594.1 H 8943.2 V 8188 H 3678.76 V 2594.1" /><g
         transform="scale(1.59913)"
         id="g206"><path
           id="path208"
           style="fill:#e58638;fill-opacity:1;fill-rule:nonzero;stroke:none"
           d="M 16300,6014.02 V 4609.2 H 12766.8 V 6014.02 H 16300" /></g><g
         transform="scale(1.45783)"
         id="g210"><path
           id="path212"
           style="fill:#e0b794;fill-opacity:1;fill-rule:nonzero;stroke:none"
           d="m 16300,2163.56 h -1398 v 1698.08 c 0,370.75 300.5,671.27 671.2,671.27 h 63.3 c 366.5,0 663.5,-297.09 663.5,-663.53 V 2163.56" /></g><g
         transform="scale(1.44594)"
         id="g214"><path
           id="path216"
           style="fill:#cea484;fill-opacity:1;fill-rule:nonzero;stroke:none"
           d="m 16300,3851.39 v -31.12 h -1142 v 25.31 c 0,302.78 245.4,548.09 548.1,548.09 h 51.6 c 299.9,0 542.3,-242.4 542.3,-542.28" /></g><g
         transform="scale(1.44594)"
         id="g218"><path
           id="path220"
           style="fill:#cea484;fill-opacity:1;fill-rule:nonzero;stroke:none"
           d="m 16300,3184.42 h -1142 v 458.94 h 1142 v -458.94" /></g><g
         transform="scale(1.44594)"
         id="g222"><path
           id="path224"
           style="fill:#cea484;fill-opacity:1;fill-rule:nonzero;stroke:none"
           d="m 16300,2282.73 h -1142 v 750.17 h 1142 v -750.17" /></g><g
         transform="scale(1.48895)"
         id="g226"><path
           id="path228"
           style="fill:#e0b794;fill-opacity:1;fill-rule:nonzero;stroke:none"
           d="m 16300,1995.97 h -2050.2 v 147.69 H 16300 v -147.69" /></g><g
         transform="scale(1.5048)"
         id="g230"><path
           id="path232"
           style="fill:#e0b794;fill-opacity:1;fill-rule:nonzero;stroke:none"
           d="m 16300,1828.82 h -2371.9 v 146.13 H 16300 v -146.13" /></g><g
         transform="scale(1.51781)"
         id="g234"><path
           id="path236"
           style="fill:#e0b794;fill-opacity:1;fill-rule:nonzero;stroke:none"
           d="m 16300,1668.19 h -2631.1 v 144.95 H 16300 v -144.95" /></g><path
         id="path238"
         style="fill:#efcdaf;fill-opacity:1;fill-rule:nonzero;stroke:none"
         d="M 7779.25,3969.3 H 5119.04 V 7160.6 H 7779.25 V 3969.3" /><path
         id="path240"
         style="fill:#f9ddbf;fill-opacity:1;fill-rule:nonzero;stroke:none"
         d="M 7614.12,3969.3 V 7160.7 H 7779.4 V 3969.3 h -165.28" /><path
         id="path242"
         style="fill:#f9ddbf;fill-opacity:1;fill-rule:nonzero;stroke:none"
         d="m 5150.43,6180.5 h 2570.53 v -96.2 H 5150.43 v 96.2" /><path
         id="path244"
         style="fill:#f9ddbf;fill-opacity:1;fill-rule:nonzero;stroke:none"
         d="m 5150.43,5132 h 2570.53 v -96.2 H 5150.43 v 96.2" /><path
         id="path246"
         style="fill:#f9ddbf;fill-opacity:1;fill-rule:nonzero;stroke:none"
         d="m 6353.06,3969.3 v 3191.4 h 165.28 V 3969.3 h -165.28" /><path
         id="path248"
         style="fill:#f9ddbf;fill-opacity:1;fill-rule:nonzero;stroke:none"
         d="m 5119.04,3969.3 v 3191.4 h 165.29 V 3969.3 h -165.29" /><path
         id="path250"
         style="fill:#f9ddbf;fill-opacity:1;fill-rule:nonzero;stroke:none"
         d="M 5119.2,4161.7 H 7779.4 V 3969.2 H 5119.2 v 192.5" /><path
         id="path252"
         style="fill:#f9ddbf;fill-opacity:1;fill-rule:nonzero;stroke:none"
         d="M 5119.2,7160.7 H 7779.4 V 6968.2 H 5119.2 v 192.5" /><path
         id="path254"
         style="fill:#ed9f4a;fill-opacity:1;fill-rule:nonzero;stroke:none"
         d="M 7148.97,8188.5 H 2766.73 l 800,3275.5 H 5693.51 L 7148.97,8188.5" /><path
         id="path256"
         style="fill:#ed9f4a;fill-opacity:1;fill-rule:nonzero;stroke:none"
         d="M 11615.3,11181.1 H 8638.22 v 4963.2 h 1119.05 c 319.53,-884 1299.23,-3483.8 1858.03,-4963.2" /><g
         transform="scale(1.59913)"
         id="g258"><path
           id="path260"
           style="fill:#ed9f4a;fill-opacity:1;fill-rule:nonzero;stroke:none"
           d="M 16300,6014.02 V 4609.2 h -2337.9 l 927.8,1404.82 H 16300" /></g><g
         transform="scale(1.00778)"
         id="g262"><path
           id="path264"
           style="fill:#f2d3b6;fill-opacity:1;fill-rule:nonzero;stroke:none"
           d="m 12306.3,14960 h -592.8 v 1230 c 0,60.7 49.3,110 110,110 h 374.9 c 59.6,0 107.9,-48.3 107.9,-108 v -1232" /></g><g
         transform="scale(1.04086)"
         id="g266"><path
           id="path268"
           style="fill:#e58638;fill-opacity:1;fill-rule:nonzero;stroke:none"
           d="m 11206.6,15904.2 h 836.8 l -415.2,395.8 -421.6,-395.8" /></g><g
         transform="scale(1.01631)"
         id="g270"><path
           id="path272"
           style="fill:#e58638;fill-opacity:1;fill-rule:nonzero;stroke:none"
           d="m 11728.2,16163.1 h -38.1 l -5.8,136.9 h 52.2 l -8.3,-136.9" /></g><g
         transform="scale(1.01631)"
         id="g274"><path
           id="path276"
           style="fill:#e58638;fill-opacity:1;fill-rule:nonzero;stroke:none"
           d="m 12121.1,16163.1 h -38.2 l -5.8,136.9 h 52.3 l -8.3,-136.9" /></g><g
         transform="scale(1.68268)"
         id="g278"><path
           id="path280"
           style="fill:#82b378;fill-opacity:1;fill-rule:nonzero;stroke:none"
           d="M 16235.9,1550.27 H 15803 c -23.2,19.67 16,64.35 57,67.33 17.9,1.37 40.4,-2.38 66.1,-7.79 6,79.1 40,434.84 168.2,420.52 144.2,-15.98 0,-156.65 -40.8,-239.91 -30.1,-61.69 -62,-150.12 -76.5,-191.84 11.7,-2.55 23.8,-5.05 36.2,-7.31 19.1,58.66 90.2,256.02 180.6,244.55 106.2,-13.49 63.5,-92.65 -11.8,-139.6 -55.2,-34.53 -122.9,-83.61 -155.1,-107.33 27.2,-4.45 55.7,-7.49 84.7,-6.83 74.1,1.78 110.3,-20.09 124.3,-31.79" /></g><path
         id="path282"
         style="fill:#82b378;fill-opacity:1;fill-rule:nonzero;stroke:none"
         d="M 8943.99,4533.6 V 2591.4 l -4588.94,-1.3 c 0,0 146.76,520.7 724.84,805.2 54.88,28.1 114.85,53.6 178.65,75.3 76.58,26.8 158.24,48.5 246.29,66.4 1.28,0 2.56,0 3.84,1.2 39.56,7.7 77.84,17.9 114.85,30.7 816.71,274.4 853.72,1544.1 3197.96,995.3 42.11,-10.1 82.95,-20.4 122.51,-30.6" /><path
         id="path284"
         style="fill:#82b378;fill-opacity:1;fill-rule:nonzero;stroke:none"
         d="m 5423.01,3270.5 c 0,0 -687.84,913.7 -995.83,667.3 -307.98,-246.4 995.83,-667.3 995.83,-667.3" /><path
         id="path286"
         style="fill:#82b378;fill-opacity:1;fill-rule:nonzero;stroke:none"
         d="m 5628.33,3362.9 c 0,41.1 10.27,882.9 -277.18,821.3 -287.46,-61.6 277.18,-821.3 277.18,-821.3" /><path
         id="path288"
         style="fill:#2c3a64;fill-opacity:1;fill-rule:nonzero;stroke:none"
         d="m 6346.69,12465.1 c -4.38,24 -60.79,281.3 -458.76,237.4 0,0 198.11,5.1 244.17,-75.7 0,0 -147.94,86.6 -250.98,36.9 -103.05,-49.7 -139.01,-248.1 -130.61,-310.4 8.4,-62.3 97.5,-254.2 168.5,-261.3 26.9,-2.7 56.54,3.4 83.03,11.9 -14.12,-31.1 -27.43,-65.1 -39.42,-102.6 -110.94,-347.4 98.04,-640.7 226.72,-586.3 82.54,34.9 128.07,-107.9 128.07,-107.9 l 735.57,795.7 c 0,0 -398.09,589.1 -706.29,362.3" /><path
         id="path290"
         style="fill:#2b478b;fill-opacity:1;fill-rule:nonzero;stroke:none"
         d="m 7304.98,2880.8 -178.91,-66.6 c 0,0 -777.06,1077.7 -872.73,2025.9 -17.09,169.3 -11.39,333.3 25.56,484.8 0,0 -7.6,43.4 -20.89,120.1 -6.13,35.7 -13.73,78.8 -22.34,128.2 -25.27,144.7 -60.04,342.8 -99.77,568.3 -91.42,519 -209.88,1182.4 -301.9,1670.1 l 48.2,15.5 521.58,168.2 107.8,342.4 388.37,102.2 c 0,0 86.76,-169.7 164.32,-971.4 14.31,-105.2 27.31,-221.2 37.1,-346.9 30.24,-383.9 32.42,-860 -36.95,-1404.4 -17.82,-139.3 -40.31,-283.2 -68.21,-431 -20.45,-108.4 -23.52,-256.1 -14.91,-425.6 39.15,-775.2 323.68,-1979.8 323.68,-1979.8" /><path
         id="path292"
         style="fill:#233862;fill-opacity:1;fill-rule:nonzero;stroke:none"
         d="M 7101.37,7121.6 6258.01,5445 c -6.13,35.7 -13.73,78.8 -22.34,128.2 -25.27,144.7 -60.04,342.8 -99.77,568.3 -91.42,519 -209.88,1182.4 -301.9,1670.1 l 48.2,15.5 521.58,168.2 107.8,342.4 388.37,102.2 c 0,0 86.76,-169.7 164.32,-971.4 14.31,-105.2 27.31,-221.2 37.1,-346.9" /><path
         id="path294"
         style="fill:#2b478b;fill-opacity:1;fill-rule:nonzero;stroke:none"
         d="m 6730.38,8224.7 c 0,0 -0.32,-1.3 -0.92,-3.9 -2.7,-11.1 -10.91,-45 -22.74,-93.6 -56.05,-230.7 -193.02,-790.8 -201.31,-790.4 -75.17,-525.2 -188.28,-1205.8 -328.71,-1728.9 -74.32,-276.7 -156.17,-509.3 -244.4,-651.7 -30.24,-48.9 -63.26,-130.7 -97.67,-234.7 C 5631.7,4108 5382.01,2719.3 5382.01,2719.3 l -113.87,-45.9 c 0,0 -438.81,1247.9 -58.58,2261.1 38.77,103.2 85.99,203.9 143.04,300.7 6.53,11.2 10.98,23.5 9.45,36.3 0,0.1 0,0.2 -0.08,0.4 -4.99,42.2 -17.28,147.9 -31.25,296.4 -38.78,409.8 -75.86,1794.6 -96.14,2120.4 -7.67,123.3 -3.14,233.4 9.45,330.9 24.34,190.2 79.16,332.5 132.67,432.1 67.58,125.6 133.15,183.2 133.15,183.2 0,0 873.93,-329.6 1201.02,-242.7 l 19.51,-167.5" /><path
         id="path296"
         style="fill:#223e77;fill-opacity:1;fill-rule:nonzero;stroke:none"
         d="m 6729.38,8142 c -6.99,-5.1 -14.51,-10 -22.66,-14.8 -301.36,-176.1 -1358.65,-114.2 -1462.69,-107.6 24.34,190.2 79.16,332.5 132.67,432.1 452.25,-40.1 1201.8,-121.5 1352.76,-230.9 34.31,-24.9 37.77,-51.3 -0.08,-78.8" /><path
         id="path298"
         style="fill:#ffb27d;fill-opacity:1;fill-rule:nonzero;stroke:none"
         d="m 8416.12,8499.2 -53.06,-156.9 c 0,0 -10.65,1.9 -29.07,6.6 -57.9,14.6 -199.03,48.3 -357.13,94.7 -238.18,67.6 -518.3,162.2 -620.16,253.4 -155.34,138.1 -382.96,516.2 -510.66,876.2 -3.9,9 -6.46,17.7 -9.01,26.4 -66.05,190.8 -103.02,374.9 -83.62,513.1 11.14,84.7 33.43,154.9 62.04,214.4 37.54,78.6 86.62,137.1 134.14,179.4 6.78,7.1 13.54,14.1 22.74,19.3 77.64,64.5 132.24,108.2 132.24,108.2 34.38,7.6 79.93,-37.7 108.94,-82.8 0,0 47.13,-89.7 67.2,-153.9 1.09,-1.5 2.19,-3.1 1.95,-4.4 4.49,-13.2 8.77,-27.7 14.12,-43.8 2.18,-3.2 2.8,-7.4 3.64,-10.3 9.14,-33.3 18.02,-67.9 26.68,-103.9 99.53,-386.6 176.58,-959.1 292.76,-1146.4 50.13,-80.6 312.1,-268.2 521.69,-410.5 150.93,-101.5 274.57,-178.8 274.57,-178.8" /><path
         id="path300"
         style="fill:#ffb27d;fill-opacity:1;fill-rule:nonzero;stroke:none"
         d="m 7014.32,10256.7 c -94.77,-61.9 -212.84,-111.8 -360.12,-141.4 -552.07,-111.3 -749.21,358.2 -819.18,678.7 76,40.7 146.65,48.1 187.45,51.8 39.76,3.6 81.55,5.5 116.13,6.3 62.91,45.4 160.14,235.9 188.88,535.1 l 25.6,-7.6 428.96,-130.5 c 0,0 -23.69,-136.9 -37.04,-266.5 -10.38,-101.4 -14.29,-198.5 4.29,-222.8 33.53,-8.3 53.63,-13.7 53.63,-13.7 0,0 0.02,-0.1 0.21,-0.4 5.54,-9.6 125.14,-219.4 211.19,-489" /><path
         id="path302"
         style="fill:#2b478b;fill-opacity:1;fill-rule:nonzero;stroke:none"
         d="m 7206.51,9911.8 c -2.58,-11.8 -5.63,-23.3 -9.06,-35.1 -96.89,-324 -175.3,-1619.3 -175.3,-1619.3 69.96,-220.7 -1705.43,-202.2 -1739.78,3 -92.82,209.4 134.38,600.4 265.69,799.1 16.44,24.9 30.64,51.2 42.34,78.4 29.62,68.4 43.92,142.8 40.98,217.9 -11.55,296.3 -62.96,568 -84.5,734.7 0,0 0,0 0.01,0 27.34,27.2 53.94,52.4 78.65,76.4 37.74,36.9 70.85,71.1 94.08,104.3 25.6,36.1 39.82,71.4 36.65,108.4 -2.44,28 -7.44,56.4 -14.46,84.4 -3.25,13.3 -6.94,26.5 -10.92,39.6 -42.17,138.1 -119.73,257.6 -119.73,257.6 140.54,82.1 411.31,84.6 411.31,84.6 0,0 1.84,-14.7 5.19,-38.9 13.21,-97.1 50.24,-346 88.15,-388.7 47.4,-53 796.03,-206.9 822.06,-121.8 25.63,83.7 -128.97,436 -134.74,449.3 -0.19,0.3 -0.21,0.4 -0.21,0.4 251.79,-58.9 348.32,-125 348.32,-125 -130.02,-114 123.55,-398.8 55.27,-709.3" /><path
         id="path304"
         style="fill:#ed985f;fill-opacity:1;fill-rule:nonzero;stroke:none"
         d="m 6782.06,11249 c 0,0 -23.75,-136.8 -37.04,-266.5 -244.21,31.4 -351.3,267.8 -391.95,396.9 l 428.99,-130.4" /><path
         id="path306"
         style="fill:#ffb27d;fill-opacity:1;fill-rule:nonzero;stroke:none"
         d="m 6851.55,11117.9 c 0,0 -580.41,48.5 -544.67,409.5 35.74,360.9 -15.11,610.3 356.98,594.6 372.08,-15.6 430.34,-160.5 447.72,-283.9 17.37,-123.4 -108.14,-723.5 -260.03,-720.2" /><path
         id="path308"
         style="fill:#2c3a64;fill-opacity:1;fill-rule:nonzero;stroke:none"
         d="m 7114.44,12040.5 c -78.7,117.6 -148.77,100.5 -189.96,71.7 -299.29,205.8 -657.81,10.5 -657.81,10.5 -64.7,-255.1 -137.64,-426.5 -137.64,-426.5 0,0 99.08,-75.8 348.83,-37.5 76.29,11.6 147.98,57.8 210.85,116.3 -115.07,-155.3 -261.11,-260.9 -261.11,-260.9 304.3,105.3 461.58,498.2 477.5,539.8 32.19,-35.3 95.01,-111.3 109.49,-181.1 19.69,-94.8 13.74,-285.3 69.53,-284.4 0,0 148.35,275.9 30.32,452.1" /><path
         id="path310"
         style="fill:#233862;fill-opacity:1;fill-rule:nonzero;stroke:none"
         d="m 6493.37,8612.1 c -342.95,-46.1 -684.52,267.4 -902.97,525.8 29.62,68.4 43.92,142.8 40.98,217.9 -11.55,296.3 -62.96,568 -84.5,734.7 0,0 0,0 0.01,0 27.34,27.2 53.94,52.4 78.65,76.4 37.74,36.9 70.85,71.1 94.08,104.3 349.21,-433.3 1238.74,-1596.7 773.75,-1659.1" /><path
         id="path312"
         style="fill:#ffb27d;fill-opacity:1;fill-rule:nonzero;stroke:none"
         d="m 7689.92,8494.6 60.67,-205.9 c 0,0 -153.11,34.8 -249.09,44.2 -28.8,2.9 -45.3,5.5 -45.3,5.5 -76.86,8.3 -169,20.6 -269.28,33.7 l -1.38,-0.1 c -172.15,25.8 -365.17,58 -529.03,98.1 -115.32,29.4 -216.07,62.8 -285.78,98.9 -7.14,3.4 -12.82,7 -20.04,11.9 -167.77,100.9 -384.53,421.8 -561.58,770.6 -24.57,48.2 -47.84,96.5 -70.87,143.4 -83.16,174.9 -152.57,348.3 -198.25,499.2 -28.27,89.9 -48.99,172.4 -57.67,241 -3.46,24.1 -6.76,47 -7.3,68.7 -0.99,12.4 -1.76,24.6 -2.3,36.5 67.8,59.3 224.21,170.2 437.51,158.7 4.44,-7.6 8.83,-15.3 13.28,-23.2 91.98,-167.3 192.41,-385.5 287.39,-602.9 52.52,-119 103.58,-238.3 153.87,-348.1 28.96,-66.8 57.52,-129.5 84.24,-187 51.67,-109.7 97.35,-198.1 136.13,-253.2 24.88,-35.9 91.45,-83.1 178.91,-135.3 151.94,-91.5 371.92,-198.8 562.88,-285.4 79.32,-36.7 154.18,-69.6 216.38,-96.8 100.35,-44.3 166.61,-72.5 166.61,-72.5" /><path
         id="path314"
         style="fill:#2b478b;fill-opacity:1;fill-rule:nonzero;stroke:none"
         d="m 5903.06,10475.2 c -265.89,49.1 -448.58,-171 -448.58,-171 -30.65,390.8 159.11,461.1 159.11,461.1 75.4,39.2 177.78,-88.4 289.47,-290.1" /><path
         id="path316"
         style="fill:#233862;fill-opacity:1;fill-rule:nonzero;stroke:none"
         d="m 5930.15,2580.4 h -901.06 c 0,0 -21.59,137.3 25.47,241.5 45.09,100 115.73,145.4 98.82,266.4 57.25,-58.9 150.57,-125 280.84,-107.4 15.96,-25.9 103.03,-164.4 156.34,-202.7 58.89,-42.3 321.46,-27.2 339.59,-197.8" /><path
         id="path318"
         style="fill:#233862;fill-opacity:1;fill-rule:nonzero;stroke:none"
         d="m 7864.86,2580.4 h -901.07 c 0,0 -33.69,143.7 25.47,241.5 52.37,86.6 32.3,135.9 -6.48,207.4 40.82,-16.7 93.62,-31.9 151.76,-28.5 44.9,2.5 92.37,22.9 134,47.1 38.78,-44.2 204.84,-232.4 256.73,-269.7 58.89,-42.3 321.45,-27.2 339.59,-197.8" /><path
         id="path320"
         style="fill:#ffffff;fill-opacity:1;fill-rule:nonzero;stroke:none"
         d="m 6713.12,11326.7 c 0,0 8.12,-47.8 125.72,-47.9 0,0 98.74,-0.1 98.99,51.8 0,0 -93.06,42.8 -224.71,-3.9" /><path
         id="path322"
         style="fill:#ed985f;fill-opacity:1;fill-rule:nonzero;stroke:none"
         d="m 9747.29,9810.6 c -38.09,14.7 -84.97,-146.5 -114.28,-152.3 -29.29,-5.9 -17.58,43.9 -43.78,51.7 -26.2,7.8 -38.26,-130.9 -17.75,-184.3 20.52,-53.4 17.62,-116.8 17.62,-116.8 0,0 -174.33,-673.4 -211.85,-748.7 -37.52,-75.3 -652.02,-623.5 -652.02,-623.5 l 135.15,-436.6 c 0,0 723.83,668.8 785.52,826.1 61.7,157.3 89.63,964.8 89.63,964.8 0,0 54.12,116.4 65.85,233.6 11.72,117.2 -15.99,171.4 -54.09,186" /><path
         id="path324"
         style="fill:#ed985f;fill-opacity:1;fill-rule:nonzero;stroke:none"
         d="m 7868.4,8085.2 c 0,0 -425.97,551.5 -633.28,722.7 0,0 -283.55,699.2 -306.6,745.2 -1.07,2.2 -2.52,4 -4.12,5.6 -3.08,16.1 -12.72,74.6 -2.1,128.5 12.45,63.1 -27.62,214.5 -55.16,200.8 -27.53,-13.7 -4.95,-66.7 -38.55,-65.8 -33.6,0.9 -116.59,170.4 -155.99,146.9 -39.39,-23.6 -59.68,-89 -24.12,-216.7 29.61,-106.2 91.62,-206.1 111.58,-236.6 -1.15,-0.7 -1.79,-1 -1.79,-1 0,0 104.15,-679.7 213.98,-881.2 109.84,-201.5 450.43,-877.7 690.82,-902.8 240.4,-25 205.33,354.4 205.33,354.4" /><path
         id="path326"
         style="fill:#d3671e;fill-opacity:1;fill-rule:nonzero;stroke:none"
         d="m 9154.76,2895.8 c 0,0 48.13,-93.9 154.74,-117.1 67.17,-14.7 124.67,-49.6 160.45,-98.6 30.23,-41.4 0.98,-99.7 -50.3,-99.7 h -541.17 c -46.08,0 -82.05,39.8 -77.44,85.6 4.03,40.1 8.25,86.8 10.08,122.6 4,78.2 82.28,141.1 82.28,141.1 l 261.36,-33.9" /><path
         id="path328"
         style="fill:#35488b;fill-opacity:1;fill-rule:nonzero;stroke:none"
         d="m 9167.8,2872.2 c 0,0 -129.84,-76.7 -349.51,-30.4 0,0 -373.47,955 -395.59,1404.4 -1,18 -1.3,35.2 -1,51.6 7.53,422.7 -382.75,1523.4 -277.49,1748.9 105.28,225.5 955.86,-101.4 955.86,-101.4 l 16.9,-767 50.83,-2306.1" /><path
         id="path330"
         style="fill:#2c3a64;fill-opacity:1;fill-rule:nonzero;stroke:none"
         d="M 9116.97,5178.3 8422.7,4246.2 c -1,18 -1.3,35.2 -1,51.6 7.53,422.7 -382.75,1523.4 -277.49,1748.9 105.28,225.5 955.86,-101.4 955.86,-101.4 l 16.9,-767" /><path
         id="path332"
         style="fill:#d3671e;fill-opacity:1;fill-rule:nonzero;stroke:none"
         d="m 7757.55,2895.8 c 0,0 48.12,-93.9 154.74,-117.1 67.16,-14.7 124.67,-49.6 160.45,-98.6 30.23,-41.4 0.99,-99.7 -50.29,-99.7 h -541.18 c -46.08,0 -82.05,39.8 -77.44,85.6 4.04,40.1 8.25,86.8 10.08,122.6 4.01,78.2 82.29,141.1 82.29,141.1 l 261.35,-33.9" /><path
         id="path334"
         style="fill:#35488b;fill-opacity:1;fill-rule:nonzero;stroke:none"
         d="m 8602.56,5927.1 c 0,0 -751.72,-2805.3 -774.76,-3079.8 0,0 -146.62,-75.2 -384.65,57.6 0,0 -138.2,1257.4 0,1601 138.21,343.6 -27.44,1382.2 324.12,1616.4 351.56,234.3 835.29,-195.2 835.29,-195.2" /><path
         id="path336"
         style="fill:#ed985f;fill-opacity:1;fill-rule:nonzero;stroke:none"
         d="m 8692.31,8150.3 -461.55,-235.9 -92.49,320.2 c 0,0 58.81,110.8 85.4,292.3 11.12,76.4 16.64,165.2 9.55,263.6 l 376.06,-192.6 c 0,0 -8.96,-34.7 -14.98,-86 -6.39,-55.5 -9.26,-130.2 6.51,-201.3 13.59,-60.9 40.87,-119.1 91.5,-160.3" /><path
         id="path338"
         style="fill:#bc3f3f;fill-opacity:1;fill-rule:nonzero;stroke:none"
         d="m 9075.86,7743.7 c 2.56,38.3 233.67,194.5 233.67,194.5 48.62,291.8 -137.06,501.9 -137.06,501.9 l -278.32,-198 c -53.75,-3.2 -76.78,-22.8 -76.78,-22.8 -46.08,12.4 -183.48,1.5 -183.48,1.5 2.03,-66.3 -15.59,-128.4 -132.05,-143.6 -154.92,-20.2 -293.44,85.5 -363.57,157.4 0,0 -93.84,8.1 -211.58,-30.3 0,0 -57,29.2 -117.74,31 l -227.82,204.8 c 0,0 -266.9,-77.1 -309.01,-479.3 0,0 299.66,-228.1 321.29,-408.2 v 0 l 8.21,-68.3 29.03,-241.9 51.11,-424.3 -152.17,-845 c -1.3,-7.4 -2.03,-14.8 -2.03,-22.1 0,-56.5 38.63,-107.3 95.4,-120.9 0,0 13.07,-2.2 37.17,-5.5 161.32,-22.7 816.16,-100.8 1329.58,38.6 115.43,31.3 191.53,141.5 181.94,260.9 l -108.64,1363.2 v 0 c 0,0 10.3,218 12.85,256.4" /><path
         id="path340"
         style="fill:#a02e2e;fill-opacity:1;fill-rule:nonzero;stroke:none"
         d="m 7867.92,6462.6 c -10.17,-294.8 -39.07,-544.7 -207.79,-638 -24.1,3.3 -37.17,5.5 -37.17,5.5 -56.77,13.6 -95.4,64.4 -95.4,120.9 0,7.3 0.73,14.7 2.03,22.1 l 152.17,845 -51.11,424.3 c 2.47,7.4 3.78,11.3 3.78,11.3 0,0 246.4,-413.6 233.49,-791.1" /><path
         id="path342"
         style="fill:#d68c5b;fill-opacity:1;fill-rule:nonzero;stroke:none"
         d="m 8600.81,8310.6 c -213.84,5.7 -377.14,216.3 -377.14,216.3 l 370.63,-15 c -6.39,-55.5 -9.26,-130.2 6.51,-201.3" /><path
         id="path344"
         style="fill:#ed985f;fill-opacity:1;fill-rule:nonzero;stroke:none"
         d="m 8704.54,8429.8 c 0,0 -426.57,-112.6 -573.7,226.5 -158.79,366.1 15.41,632.8 160.27,650.8 288.85,35.9 456.63,-74.3 507.39,-190.7 50.76,-116.4 141.39,-626.6 -93.96,-686.6" /><path
         id="path346"
         style="fill:#ffffff;fill-opacity:1;fill-rule:nonzero;stroke:none"
         d="m 8535.44,8620.7 c 0,0 17.85,-44 130.37,-19.3 0,0 94.48,20.7 83.76,70.5 0,0 -98.04,21.3 -214.13,-51.2" /><path
         id="path348"
         style="fill:#2c3a64;fill-opacity:1;fill-rule:nonzero;stroke:none"
         d="m 8207,8537.7 c 0,0 -50.05,146.8 -44.06,225.2 0,0 -111.31,141.9 -46.45,177 64.86,35.1 99.85,-48.8 114.72,-32.4 14.86,16.5 38.05,295.4 116.82,286.6 78.77,-8.8 370.16,-99.1 497.91,11.1 127.75,110.1 -182.18,540.6 -707.39,374.3 -525.21,-166.2 -417.97,-750.2 68.45,-1041.8" /><path
         id="path350"
         style="fill:#2c3a64;fill-opacity:1;fill-rule:nonzero;stroke:none"
         d="m 7879.45,9350.5 c 0,0 -23.8,71 1.75,121.6 0,0 1.26,-69.8 28.67,-100.8 27.42,-31.1 -30.42,-20.8 -30.42,-20.8" /><path
         id="path352"
         style="fill:#2c3a64;fill-opacity:1;fill-rule:nonzero;stroke:none"
         d="m 7890.39,9400.1 c 0,0 -64.97,7.4 -95.65,-42.6 0,0 45.76,31 92.03,-1.9 l 3.62,44.5" /><path
         id="path354"
         style="fill:#ffb27d;fill-opacity:1;fill-rule:nonzero;stroke:none"
         d="m 7689.92,8494.6 c 0,0 264.48,-54.4 287.81,-82.8 23.34,-28.3 190,-225 113.34,-248.3 -76.67,-23.3 -207,66.7 -248.51,86.7 -41.49,20 -91.97,38.5 -91.97,38.5 l -60.67,205.9" /><g
         transform="scale(1.73919)"
         id="g356"><path
           id="path358"
           style="fill:#bc3f3f;fill-opacity:1;fill-rule:nonzero;stroke:none"
           d="m 16300,2503.69 h -1560.4 v 918.65 H 16300 v -918.65" /></g><g
         transform="scale(1.76912)"
         id="g360"><path
           id="path362"
           style="fill:#cea484;fill-opacity:1;fill-rule:nonzero;stroke:none"
           d="m 16300,3455.22 h -2383.9 v 162.34 H 16300 v -162.34" /></g><g
         transform="scale(1.55509)"
         id="g364"><path
           id="path366"
           style="fill:#cea484;fill-opacity:1;fill-rule:nonzero;stroke:none"
           d="m 16300,1683.76 h -237.3 v 2247 h 237.3 v -2247" /></g><g
         transform="scale(1.55509)"
         id="g368"><path
           id="path370"
           style="fill:#bc8d6d;fill-opacity:1;fill-rule:nonzero;stroke:none"
           d="m 16300,3796.11 -237.3,-142.37 v 277.02 h 237.3 v -134.65" /></g><g
         transform="scale(1.58521)"
         id="g372"><path
           id="path374"
           style="fill:#bc8d6d;fill-opacity:1;fill-rule:nonzero;stroke:none"
           d="m 16300,3691.24 h -50.3 v 205.08 h 50.3 v -205.08" /></g><g
         transform="scale(1.73033)"
         id="g376"><path
           id="path378"
           style="fill:#bc8d6d;fill-opacity:1;fill-rule:nonzero;stroke:none"
           d="m 16300,3381.67 h -46.1 v 187.88 h 46.1 v -187.88" /></g><g
         transform="scale(1.6275)"
         id="g380"><path
           id="path382"
           style="fill:#ffffff;fill-opacity:1;fill-rule:nonzero;stroke:none"
           d="m 16180,3313.31 c 18.2,0 34.3,-2.46 48.2,-7.31 13.9,-4.92 25.4,-11.06 34.7,-18.37 9.2,-7.38 16.2,-15.49 21,-24.27 4.7,-8.85 7.4,-17.27 8,-25.14 0.2,-3.25 -0.8,-5.89 -3.1,-7.98 -2.3,-2.03 -5,-3.01 -8,-3.01 h -28.5 c -4.7,0 -8.2,0.86 -10.4,2.64 -2.4,1.78 -4.5,4.11 -6.4,7.12 -4.1,6.83 -10.2,12.73 -18.5,17.76 -8.3,5.04 -20.7,7.56 -37,7.56 -7.1,0 -13.8,-0.74 -20.2,-2.27 -6.4,-1.48 -11.9,-3.63 -16.7,-6.52 -4.8,-2.82 -8.5,-6.32 -11.2,-10.38 -2.8,-4.12 -4.1,-8.73 -4.1,-13.89 0,-6.26 1.3,-11.36 3.8,-15.3 2.6,-3.93 7,-7.37 13.1,-10.2 6.1,-2.88 14.2,-5.53 24.3,-7.98 10.1,-2.46 22.6,-5.29 37.5,-8.55 16.4,-3.56 30.5,-7.74 42.3,-12.47 11.8,-4.73 21.5,-10.44 29,-17.14 7.5,-6.7 13,-14.38 16.7,-23.04 3.7,-8.73 5.5,-18.68 5.5,-29.8 0,-12.23 -2.7,-23.6 -8.1,-34.1 -5.5,-10.45 -13.2,-19.48 -23.3,-26.92 -10.1,-7.49 -22.4,-13.39 -37.2,-17.75 -14.7,-4.37 -31.1,-6.52 -49.3,-6.52 -15.3,0 -29.8,1.79 -43.7,5.47 -13.9,3.69 -26.2,8.97 -36.9,15.92 -10.8,6.94 -19.4,15.3 -26,25.13 -6.5,9.77 -10.2,20.64 -11,32.62 -0.3,3.26 0.8,5.96 3.1,7.99 2.3,2.03 4.9,3.07 7.9,3.07 h 28.6 c 4.6,0 8.2,-0.86 10.6,-2.45 2.4,-1.66 4.5,-4.12 6.1,-7.38 1.9,-3.5 4.3,-7.06 7,-10.63 2.7,-3.5 6.4,-6.63 11,-9.34 4.6,-2.76 10.4,-4.98 17.4,-6.76 6.9,-1.78 15.5,-2.64 25.9,-2.64 8.2,0 16,0.62 23.6,1.84 7.7,1.23 14.3,3.26 20,6.09 5.7,2.89 10.4,6.39 13.9,10.63 3.6,4.24 5.3,9.46 5.3,15.73 0,5.96 -1.9,10.87 -5.7,14.68 -3.8,3.81 -9.6,7.07 -17.4,9.77 -7.7,2.77 -17.3,5.35 -28.7,7.81 -11.4,2.39 -24.7,5.53 -39.6,9.33 -13.6,3.32 -25.5,7.2 -35.7,11.68 -10.2,4.48 -18.7,9.95 -25.4,16.53 -6.6,6.51 -11.6,14.19 -14.8,23.04 -3.3,8.85 -4.9,19.42 -4.9,31.64 0,12.23 2.7,23.54 8.1,33.86 5.5,10.32 12.9,19.17 22.5,26.54 9.5,7.37 20.8,13.15 34.1,17.33 13.2,4.24 27.4,6.33 42.6,6.33" /></g><g
         transform="scale(1.65521)"
         id="g384"><path
           id="path386"
           style="fill:#ffffff;fill-opacity:1;fill-rule:nonzero;stroke:none"
           d="m 16245,3147.09 c -1.1,19.27 -7.3,34.19 -18.7,44.76 -11.4,10.52 -26.4,15.83 -45.1,15.83 -18.8,0 -33.8,-5.31 -45.2,-15.83 -11.3,-10.57 -17.5,-25.49 -18.6,-44.76 -0.6,-10.16 -0.8,-21.45 -0.8,-33.9 0,-12.44 0.2,-23.74 0.8,-33.95 1.1,-19.27 7.3,-34.07 18.6,-44.53 11.4,-10.45 26.4,-15.65 45.2,-15.65 18.7,0 33.7,5.2 45.1,15.65 11.4,10.46 17.6,25.26 18.7,44.53 0.5,10.21 0.8,21.51 0.8,33.95 0,12.45 -0.3,23.74 -0.8,33.9 z m -181.8,1.99 c 0.8,14.98 3.7,29.12 8.6,42.35 5,13.23 12.3,24.71 21.9,34.5 9.6,9.78 21.7,17.52 36.1,23.26 14.4,5.8 31.5,8.64 51.4,8.64 19.5,0 36.5,-2.78 51,-8.4 14.4,-5.62 26.4,-13.41 36.1,-23.26 9.6,-9.91 17,-21.45 22,-34.56 5.1,-13.11 8.1,-27.25 8.9,-42.53 0.3,-5.08 0.4,-10.7 0.6,-16.86 0.1,-6.16 0.2,-12.5 0.2,-19.03 0,-6.58 -0.1,-12.93 -0.2,-19.09 -0.2,-6.16 -0.3,-11.78 -0.6,-16.86 -0.8,-14.98 -3.7,-29.12 -8.7,-42.35 -4.9,-13.23 -12.2,-24.71 -21.9,-34.49 -9.6,-9.79 -21.7,-17.46 -36.3,-23.08 -14.5,-5.62 -31.6,-8.4 -51.1,-8.4 -19.9,0 -37,2.78 -51.4,8.4 -14.4,5.62 -26.5,13.29 -36.1,23.08 -9.6,9.78 -16.9,21.26 -21.9,34.49 -4.9,13.23 -7.8,27.37 -8.6,42.35 -0.3,5.08 -0.5,10.7 -0.6,16.86 -0.2,6.16 -0.2,12.51 -0.2,19.09 0,6.53 0,12.87 0.2,19.03 0.1,6.16 0.3,11.78 0.6,16.86" /></g><g
         transform="scale(1.68056)"
         id="g388"><path
           id="path390"
           style="fill:#ffffff;fill-opacity:1;fill-rule:nonzero;stroke:none"
           d="m 16289.3,2977.46 c 3,0 5.5,-1.01 7.5,-3.15 2.2,-2.08 3.2,-4.58 3.2,-7.5 v -28.08 c 0,-2.92 -1,-5.42 -3.2,-7.5 -2,-2.08 -4.5,-3.16 -7.5,-3.16 h -173.1 c -2.9,0 -5.4,1.08 -7.5,3.16 -2.1,2.08 -3.2,4.58 -3.2,7.5 v 255.39 c 0,2.85 1.1,5.35 3.2,7.49 2.1,2.09 4.6,3.16 7.5,3.16 h 32 c 2.9,0 5.4,-1.07 7.6,-3.16 2,-2.14 3.1,-4.64 3.1,-7.49 v -216.66 h 130.4" /></g><g
         transform="scale(1.70793)"
         id="g392"><path
           id="path394"
           style="fill:#ffffff;fill-opacity:1;fill-rule:nonzero;stroke:none"
           d="m 16246.5,3046.08 c -0.5,8.26 -2.2,15.99 -4.9,23.13 -2.7,7.14 -6.8,13.35 -12,18.68 -5.4,5.27 -12,9.42 -20.1,12.41 -8,2.98 -17.6,4.51 -28.8,4.51 h -52.1 v -175.07 h 54.1 c 10.6,0 19.8,1.52 27.6,4.51 7.8,2.99 14.2,7.03 19.4,12.24 5.2,5.15 9.2,11.41 11.9,18.67 2.7,7.26 4.4,15.05 4.9,23.31 1,19.2 1,38.41 0,57.61 z m -63.8,107.32 c 19.2,0 35.8,-2.51 50,-7.61 14.1,-5.03 25.9,-12.24 35.3,-21.54 9.5,-9.37 16.8,-20.61 21.8,-33.85 5.1,-13.23 8.2,-28.04 9.1,-44.32 1.1,-19.2 1.1,-38.41 0,-57.61 -0.9,-16.34 -4,-31.09 -9.1,-44.33 -5,-13.23 -12.2,-24.47 -21.5,-33.84 -9.4,-9.31 -21,-16.51 -34.9,-21.6 -13.8,-5.04 -30.1,-7.56 -48.8,-7.56 h -98 c -2.8,0 -5.3,1.06 -7.4,3.11 -2,2.05 -3.1,4.51 -3.1,7.37 v 251.3 c 0,2.81 1.1,5.27 3.1,7.38 2.1,2.05 4.6,3.1 7.4,3.1 h 96.1" /></g><g
         transform="scale(1.11621)"
         id="g396"><path
           id="path398"
           style="fill:#82b378;fill-opacity:1;fill-rule:nonzero;stroke:none"
           d="m 10836.8,2341.41 c 0,0 294.3,626.85 956.5,635.36 662.2,8.43 1027.6,781.04 1645,744.22 617.5,-36.82 691.1,-642.35 1132.6,-744.22 441.4,-101.95 1655.5,117.45 1729.1,-672.81 l -5463.2,37.45" /></g><path
         id="path400"
         style="fill:#82b378;fill-opacity:1;fill-rule:nonzero;stroke:none"
         d="m 13687.3,3322.7 c 0,9.4 -533.8,997.8 -728.9,832.1 -195,-165.7 728.9,-832.1 728.9,-832.1" /><path
         id="path402"
         style="fill:#82b378;fill-opacity:1;fill-rule:nonzero;stroke:none"
         d="m 13492.3,3291 c 0,0 -477.4,292.6 -703.3,220.7 -225.8,-71.8 703.3,-220.7 703.3,-220.7" /><path
         id="path404"
         style="fill:#82b378;fill-opacity:1;fill-rule:nonzero;stroke:none"
         d="m 14657.5,3891.6 c 5.1,30.8 -10.3,805.9 -266.9,708.4 -256.7,-97.6 266.9,-708.4 266.9,-708.4" /><path
         id="path406"
         style="fill:#82b378;fill-opacity:1;fill-rule:nonzero;stroke:none"
         d="m 14811.5,4035.3 c 10.2,15.4 164.2,431.2 51.3,431.2 -112.9,0 -41.1,-415.8 -41.1,-415.8 l -10.2,-15.4" /><g
         transform="scale(1.06522)"
         id="g408"><path
           id="path410"
           style="fill:#ed985f;fill-opacity:1;fill-rule:nonzero;stroke:none"
           d="m 16003.3,7828.8 c -5.8,1.78 -11.6,3.85 -17.6,5.91 -29.8,10.71 -90,88.62 -90,88.62 l -113.7,-122.6 78,-82.43 c 44.6,-104.29 45.3,-106.17 180,-126.45 116.7,-17.55 97.7,-91.81 178.9,-112.27 81.1,-20.47 70.1,94.44 70.1,94.44 -31.3,181.93 -65.7,205.77 -143.8,221.92 25.9,9.3 43.3,22.91 37.8,39.99 -4.8,15.12 -44.8,-1.31 -124.5,8.64 -11.8,1.41 -34.7,-6.85 -55.2,-15.77" /></g><g
         transform="scale(1.04413)"
         id="g412"><path
           id="path414"
           style="fill:#912f2f;fill-opacity:1;fill-rule:nonzero;stroke:none"
           d="m 16235.4,7919.04 c 44,88.59 64.6,192.03 64.6,192.03 0,0 -781.9,514.11 -850.5,571.38 -68.5,57.37 -779.4,1102.36 -779.4,1102.36 L 13837,9718.1 c 0,0 1111,-1282.26 1287.6,-1424.1 291.8,-234.46 1020.7,-488.54 1020.7,-488.54 0,0 55.6,43.95 90.1,113.58" /></g><g
         transform="scale(1.00303)"
         id="g416"><path
           id="path418"
           style="fill:#233862;fill-opacity:1;fill-rule:nonzero;stroke:none"
           d="m 16300,2573.4 h -891 c -42.9,52.24 -27.1,245.26 -20.6,308.27 1.3,12.66 2.3,20.14 2.3,20.14 0,0 304.2,243.36 346,57.02 1.3,-5.88 2.8,-11.56 4.5,-17.24 52.6,-174.28 288.9,-253.54 425.3,-275.57 88.6,-14.36 121.4,-60.51 133.5,-92.62" /></g><path
         id="path420"
         style="fill:#233862;fill-opacity:1;fill-rule:nonzero;stroke:none"
         d="m 15166.4,2581.2 h -893.8 c -42.9,52.4 -27.1,246 -20.6,309.2 1.3,12.7 2.3,20.2 2.3,20.2 0,0 305.2,244.1 347.1,57.2 1.3,-5.9 2.8,-11.6 4.5,-17.3 52.8,-174.8 289.7,-254.3 426.6,-276.4 88.9,-14.4 121.8,-60.7 133.9,-92.9" /><path
         id="path422"
         style="fill:#2b478b;fill-opacity:1;fill-rule:nonzero;stroke:none"
         d="m 15977,7550.8 c 0,0 0,-544.7 1.7,-1253.9 2.3,-947 -63.4,-2103.9 -72.2,-2323.6 -15.3,-381.5 -76.4,-991.8 -76.4,-991.8 0,0 -144.8,-144.9 -434.8,-83.8 0,0 -258.4,871.1 -332.2,1792.8 -1.1,15.1 -2.3,30.4 -3.4,45.6 -68.7,938.3 -175.5,2914.2 -175.5,2914.2 l 1092.8,-99.5" /><path
         id="path424"
         style="fill:#233862;fill-opacity:1;fill-rule:nonzero;stroke:none"
         d="m 15977,7550.8 c 0,0 0,-524 1.7,-1253.9 l -838.6,-2238 c -1.1,15.1 -79.3,662 -80.4,677.2 -68.7,938.3 -175.5,2914.2 -175.5,2914.2 l 1092.8,-99.5" /><path
         id="path426"
         style="fill:#2b478b;fill-opacity:1;fill-rule:nonzero;stroke:none"
         d="m 15538.4,7736.6 c 0,0 -112.8,-1501.2 -271.9,-2756.2 -202.7,-1095.1 -561.4,-2102.9 -561.4,-2102.9 0,0 -435.9,-41.3 -483.3,35.8 0,0 -87.1,1361.5 110.6,2075.4 89.1,322.1 -57,1196.1 -88.7,1660.4 -41,600.5 89.3,1143.4 89.3,1143.4 l 1205.4,-55.9" /><path
         id="path428"
         style="fill:#ed985f;fill-opacity:1;fill-rule:nonzero;stroke:none"
         d="m 15510.5,10554.3 c -326.4,-103 -891.2,174.9 -891.2,174.9 0,0 300.9,225.9 285.2,695.6 l 252.4,-203.4 171.4,-138.2 c 0,0 -0.7,-81.4 -19.5,-224.2 -4.9,-37.5 -11,-79.4 -18.8,-125.1 140.1,-76.9 220.5,-179.6 220.5,-179.6" /><path
         id="path430"
         style="fill:#d68c5b;fill-opacity:1;fill-rule:nonzero;stroke:none"
         d="m 15328.3,11083.2 c 0,0 -0.7,-81.4 -19.5,-224.2 -189.9,32.6 -405.4,339.7 -405.4,339.7 96.7,27.9 181.4,32.9 253.5,22.7 l 171.4,-138.2" /><path
         id="path432"
         style="fill:#ed985f;fill-opacity:1;fill-rule:nonzero;stroke:none"
         d="m 15428.1,11090.9 c 0,0 -539.1,-89.5 -589.8,247.1 -50.6,336.7 -154.3,551.8 187.9,623.2 342.1,71.5 428.4,-46.9 472.6,-155.2 44.3,-108.2 68.3,-683.1 -70.7,-715.1" /><path
         id="path434"
         style="fill:#bc3f3f;fill-opacity:1;fill-rule:nonzero;stroke:none"
         d="m 15995.9,7522.8 c -9.8,-8.2 -21.2,-13.1 -34.3,-13.1 -122.6,1.7 -509.9,-67.2 -812.3,-36.1 -255,24.5 -480.7,100 -723,208.6 -32.2,14.5 -106.3,54 -104.6,90 1.1,39.4 5,96.5 9.9,168.5 17.1,250.1 47,680.4 17.9,1176.8 -5.3,92.4 -8,184.1 -8.3,274.4 -2.5,672.8 130.9,1264.5 398.9,1464.8 22.9,16.4 163.5,-52.3 292.7,-116 119.3,-58.9 238.6,-65.4 351.4,-42.6 l 112.7,-99.7 c 137.4,-127.4 287.7,-300.7 353.1,-563.9 55.6,-223.9 88.3,-627.7 106.3,-1046.2 8.1,-189.6 14.7,-380.9 16.4,-562.3 v -6.5 c 1.6,-18 1.6,-37.7 1.6,-55.6 6.5,-465.9 29.8,-834.5 21.6,-841.1" /><path
         id="path436"
         style="fill:#233862;fill-opacity:1;fill-rule:nonzero;stroke:none"
         d="m 14837.9,11370.4 c 0,0 55.3,9.3 46.4,85.5 -8.9,76.2 -8.8,175.8 53.2,157.2 61.9,-18.5 65,-68.1 90.5,-39.2 25.4,29 25.9,151.1 210.2,159.6 184.4,8.5 259.3,-55.7 345.1,-18 85.7,37.7 90.2,167.4 90.2,167.4 0,0 -24.3,-46.3 -61.2,-61 0,0 143.1,195.6 -22.5,329.8 -165.6,134.1 -334.5,46.3 -430.4,40.5 -211.1,-12.8 -347.5,-25.5 -416.5,-164.2 -69,-138.8 -40.5,-524 95,-657.6" /><g
         transform="scale(1.31762)"
         id="g438"><path
           id="path440"
           style="fill:#233862;fill-opacity:1;fill-rule:nonzero;stroke:none"
           d="m 15608.9,5662.33 c -1.7,11.92 -11.1,20.95 -22.4,22.77 -2.6,0.38 -5.3,0.46 -8.1,0.08 l -40.5,-5.7 -149.8,-21.4 -81.8,-11.68 c -14.7,-2.05 -25,-15.79 -22.8,-30.44 l 12.1,-85.15 325.5,46.37 z m -660.2,-182.07 99.5,14.2 v 0 0 h 0.1 c 0,0 0,0 0,0.07 7,1.67 13.9,3.04 21.1,4.02 l 181.4,25.81 -12.1,85.23 c -2.7,18.97 2.2,38.02 13.7,53.42 11.6,15.41 28.6,25.43 47.5,28.16 l 47.3,6.76 190.5,27.17 34.4,4.86 c 39.3,5.53 76,-21.86 81.5,-61.25 l 12.2,-85.16 313.1,44.63 c 119,16.93 230.3,-66.56 247.3,-185.56 l 56.8,-399.43 c 17,-119.01 -66.5,-230.27 -185.5,-247.19 l -909.4,-129.63 c -16,-2.35 -31.9,-2.73 -47.4,-1.52 l -74.3,-10.55 c -118.6,-16.92 -229.4,66.26 -246.3,184.88 l -56.3,394.81 c -16.9,118.54 66.3,229.42 184.9,246.27" /></g><path
         id="path442"
         style="fill:#912f2f;fill-opacity:1;fill-rule:nonzero;stroke:none"
         d="m 14332.4,7939.9 c 17.1,250.1 47,680.4 17.9,1176.8 -5.3,92.4 -8,184.1 -8.4,274.4 111.7,270.9 203,467.3 203,467.3 h 281.4 c 0,0 206.4,-1409.5 -493.9,-1918.5" /><path
         id="path444"
         style="fill:#ed985f;fill-opacity:1;fill-rule:nonzero;stroke:none"
         d="m 13736.7,7754.2 c 0.3,6.4 0.7,12.9 1.2,19.7 2.5,33.5 65.5,117.5 65.5,117.5 l -158,82.1 -62.6,-103.5 c -94.5,-75.2 -96.3,-76.5 -79,-220.5 14.9,-124.8 -66.8,-126.3 -64.8,-215.5 1.9,-89.1 116.8,-45.3 116.8,-45.3 178,83.5 192.7,125.6 187.2,210.4 16.9,-24 35.8,-38 51.9,-27.5 14.1,9.2 -14.1,45.7 -26.4,130.2 -1.8,12.6 -16.8,33.8 -31.8,52.4" /><path
         id="path446"
         style="fill:#bc3f3f;fill-opacity:1;fill-rule:nonzero;stroke:none"
         d="m 13643.1,7827.1 c 101.3,-19.8 211.2,-11.8 211.2,-11.8 0,0 300.9,929.5 339.7,1014.5 38.7,84.9 893.7,1089.9 893.7,1089.9 l -356.2,891.5 c 0,0 -924.8,-1544.9 -1018.7,-1762 -155.2,-358.7 -209,-1162.9 -209,-1162.9 0,0 59.7,-43.7 139.3,-59.2" /><g
         transform="scale(1.2585)"
         id="g448"><path
           id="path450"
           style="fill:#ffb27d;fill-opacity:1;fill-rule:nonzero;stroke:none"
           d="m 16079.7,6107.26 c 0.6,5.08 1.1,10.25 1.6,15.57 2.5,26.62 -35.8,100.76 -35.8,100.76 l 134.7,43.38 35.3,-89.31 c 64.2,-71.44 66.4,-86.22 75.4,-186.02 9.1,-99.48 -9.9,-84.94 -37.9,-96.46 -34.1,-14.06 -67.8,-22.25 -92.3,-26.94 -28.6,-5.4 -58.2,-3.49 -85.3,6.99 -35.6,13.83 -40.1,32.5 -35.4,57.69 2.7,14.14 -9.2,25.67 -23.7,25.51 -2.7,0 -5.1,0.87 -7.4,2.94 -9.8,9.06 18.1,44.49 38.9,109.09 3.1,9.62 17.6,24.24 31.9,36.8" /></g><g
         transform="scale(1.26188)"
         id="g452"><path
           id="path454"
           style="fill:#233862;fill-opacity:1;fill-rule:nonzero;stroke:none"
           d="m 16119.3,6135.51 c -81.8,-2.06 -166.6,18.7 -166.6,18.7 0,0 -112.5,766 -131.6,837.48 -19,71.48 -554.6,969.61 -554.6,969.61 l 487,384.45 c 0,0 427.8,-1064.02 472.6,-1246.05 73.9,-300.74 9.9,-936.29 9.9,-936.29 0,0 -52.4,-26.31 -116.7,-27.9" /></g><g
         transform="scale(1.30554)"
         id="g456"><path
           id="path458"
           style="fill:#233862;fill-opacity:1;fill-rule:nonzero;stroke:none"
           d="m 15749.3,1977.11 h 299.4 c 37.7,20.46 71.3,67.33 81.9,137.19 14.6,96.43 122.7,148.98 146.1,227.87 23.3,78.9 -96.5,189.89 -96.5,189.89 l -20,25.81 -20.8,26.81 -198.7,-46.8 c 0,0 -5,-47.26 -8,-107.54 -2.1,-43.51 -3.3,-93.76 -0.8,-137.88 5.9,-105.16 -29.4,-218.45 -122.9,-238.9 -69.1,-15.09 -66,-56.07 -59.7,-76.45" /></g><g
         transform="scale(1.17975)"
         id="g460"><path
           id="path462"
           style="fill:#233862;fill-opacity:1;fill-rule:nonzero;stroke:none"
           d="m 15505.9,2187.91 h 757.7 c 36.4,44.42 22.9,208.52 17.4,262.09 -1.1,10.77 -1.8,17.12 -1.8,17.12 0,0 -258.8,206.91 -294.4,48.49 -1,-5 -2.3,-9.84 -3.8,-14.67 -44.7,-148.16 -245.5,-215.55 -361.5,-234.28 -75.4,-12.21 -103.2,-51.45 -113.6,-78.75" /></g><g
         transform="scale(1.21217)"
         id="g464"><path
           id="path466"
           style="fill:#f99746;fill-opacity:1;fill-rule:nonzero;stroke:none"
           d="m 15231.8,6245.15 c 0,0 38.2,-476.99 83.1,-1050.43 61.1,-778.84 134.6,-1735.64 141.8,-1916.88 12.6,-314.73 63,-818.21 63,-818.21 0,0 119.5,-119.53 358.7,-69.13 0,0 213.1,718.63 274.1,1479 0.9,12.46 1.8,25.08 2.8,37.62 56.6,774.06 144.7,2404.11 144.7,2404.11 l -1068.2,-66.08" /></g><g
         transform="scale(1.21217)"
         id="g468"><path
           id="path470"
           style="fill:#ed7d2b;fill-opacity:1;fill-rule:nonzero;stroke:none"
           d="m 15231.8,6245.15 c 0,0 38.2,-476.99 83.1,-1050.43 l 837.6,-1325.22 c 0.9,12.46 1.8,25.08 2.8,37.62 56.6,774.06 144.7,2404.11 144.7,2404.11 l -1068.2,-66.08" /></g><g
         transform="scale(1.29595)"
         id="g472"><path
           id="path474"
           style="fill:#f99746;fill-opacity:1;fill-rule:nonzero;stroke:none"
           d="m 14410.4,5788.41 c 0,0 644.6,-1615.8 1068.4,-2375.24 423.8,-759.36 556.3,-971.26 556.3,-971.26 0,0 242.8,97.15 264.9,163.36 0,0 -162.1,1466.03 -445.9,1823.37 -160.5,201.94 -348.8,807.9 -357.7,1019.87 -8.8,211.89 -57.3,631.27 -57.3,631.27 l -1028.7,-291.37" /></g><g
         transform="scale(1.21315)"
         id="g476"><path
           id="path478"
           style="fill:#ffb27d;fill-opacity:1;fill-rule:nonzero;stroke:none"
           d="m 15565.4,8699.89 c 269,-84.9 734.6,144.25 734.6,144.25 0,0 -248,186.19 -235.1,573.33 l -208,-167.67 -141.3,-113.87 c 0,0 0.5,-67.14 16,-184.81 4.1,-30.93 9.1,-65.44 15.5,-103.15 -115.4,-63.4 -181.7,-148.08 -181.7,-148.08" /></g><g
         transform="scale(1.19572)"
         id="g480"><path
           id="path482"
           style="fill:#ed975d;fill-opacity:1;fill-rule:nonzero;stroke:none"
           d="m 15944.7,9269.1 c 0,0 0.5,-68.11 16.2,-187.5 158.9,27.27 339.1,284.05 339.1,284.05 -80.9,23.36 -151.7,27.55 -212,18.98 l -143.3,-115.53" /></g><g
         transform="scale(1.20918)"
         id="g484"><path
           id="path486"
           style="fill:#ffb27d;fill-opacity:1;fill-rule:nonzero;stroke:none"
           d="m 15684.6,9172.31 c 0,0 445.9,-74.08 487.8,204.32 41.8,278.4 127.6,456.34 -155.4,515.41 -282.9,59.07 -354.3,-38.83 -390.9,-128.36 -36.6,-89.52 -56.4,-564.93 58.5,-591.37" /></g><g
         transform="scale(1.23151)"
         id="g488"><path
           id="path490"
           style="fill:#2b478b;fill-opacity:1;fill-rule:nonzero;stroke:none"
           d="m 14963.3,6107.95 c 8,-6.57 17.3,-10.63 27.9,-10.63 99.5,1.38 389.8,-53.92 635.4,-28.67 207.1,19.9 390.3,81.2 587.1,169.39 26.1,11.77 86.3,43.84 84.9,73.08 -0.9,31.99 -4,78.36 -8,136.82 -13.9,203.09 -38.2,552.5 -14.6,955.58 4.3,75.03 6.5,149.49 6.8,222.81 2,546.29 -106.3,1026.8 -323.9,1189.42 -18.6,13.34 -132.8,-42.46 -237.7,-94.19 -96.9,-47.8 -193.8,-53.07 -285.3,-34.54 l -91.6,-80.96 c -111.5,-103.52 -233.7,-244.23 -286.7,-457.9 -45.2,-181.84 -71.7,-509.73 -86.3,-849.55 -6.6,-153.96 -11.9,-309.3 -13.3,-456.6 v -5.28 c -1.3,-14.61 -1.3,-30.61 -1.3,-45.14 -5.3,-378.32 0,-678.28 6.6,-683.64" /></g><g
         transform="scale(1.07867)"
         id="g492"><path
           id="path494"
           style="fill:#ffb27d;fill-opacity:1;fill-rule:nonzero;stroke:none"
           d="m 16081.5,7731.2 c 5.6,1.76 11.4,3.8 17.3,5.84 29.4,10.57 88.9,87.51 88.9,87.51 l 112.3,-121.07 -77,-81.4 c -44.1,-103 -44.8,-104.85 -177.8,-124.88 -115.2,-17.33 -96.5,-90.66 -176.7,-110.87 -80.1,-20.21 -69.2,93.26 -69.2,93.26 31,179.67 64.9,203.21 142,219.16 -25.6,9.18 -42.7,22.62 -37.3,39.49 4.7,14.93 44.3,-1.29 122.9,8.53 11.7,1.39 34.3,-6.76 54.6,-15.57" /></g><g
         transform="scale(1.22368)"
         id="g496"><path
           id="path498"
           style="fill:#2b478b;fill-opacity:1;fill-rule:nonzero;stroke:none"
           d="m 14253.5,6757.07 c -37.5,75.59 -55.1,163.85 -55.1,163.85 0,0 667.2,438.68 725.7,487.55 58.5,48.95 665,940.6 665,940.6 l 710.9,-56.92 c 0,0 -948,-1094.11 -1098.7,-1215.14 -249,-200.05 -870.9,-416.86 -870.9,-416.86 0,0 -47.4,37.51 -76.9,96.92" /></g><g
         transform="scale(1.2098)"
         id="g500"><path
           id="path502"
           style="fill:#2b478b;fill-opacity:1;fill-rule:nonzero;stroke:none"
           d="m 16164.4,9398.62 c 0,0 -45.7,7.64 -38.3,70.63 7.3,62.99 7.3,145.34 -44,129.98 -51.2,-15.33 -53.7,-56.34 -74.8,-32.39 -21,23.95 -21.4,124.83 -173.8,131.86 -152.4,7.02 -214.3,-46.03 -285.2,-14.86 -70.8,31.15 -74.6,138.42 -74.6,138.42 0,0 20.1,-38.3 50.6,-50.48 0,0 -118.3,161.71 18.6,272.62 136.9,110.9 276.5,38.3 355.8,33.5 174.5,-10.6 287.2,-21.1 344.3,-135.76 57,-114.69 33.4,-433.14 -78.6,-543.52" /></g><g
         transform="scale(1.23304)"
         id="g504"><path
           id="path506"
           style="fill:#233862;fill-opacity:1;fill-rule:nonzero;stroke:none"
           d="m 14940.8,6926.36 c 0,0 576.3,190.91 779.8,425.29 206.5,237.95 579.4,673.29 579.4,673.29 l -3.6,14.44 c -29.2,118.79 -69.9,234.43 -121.5,345.32 v 0 c 0,0 -50.3,-299.17 -205.1,-505.57 -154.9,-206.49 -154.9,-206.49 -154.9,-206.49 0,0 -254.8,-437.69 -874.1,-746.28" /></g><g
         transform="scale(1.80525)"
         id="g508"><path
           id="path510"
           style="fill:#2e3552;fill-opacity:1;fill-rule:nonzero;stroke:none"
           d="M 16281.9,1402.57 H 336.289 c -9.96,0 -18.109,8.15 -18.109,18.12 v 6.2 c 0,9.92 8.149,18.12 18.109,18.12 H 16281.9 c 10,0 18.1,-8.2 18.1,-18.12 v -6.2 c 0,-9.97 -8.1,-18.12 -18.1,-18.12" /></g></g></g></svg>